<?xml version="1.0" encoding="utf-8"?>
<!-- Generator: Adobe Illustrator 16.0.0, SVG Export Plug-In . SVG Version: 6.00 Build 0)  -->
<!DOCTYPE svg PUBLIC "-//W3C//DTD SVG 1.1//EN" "http://www.w3.org/Graphics/SVG/1.1/DTD/svg11.dtd">
<svg version="1.1" xmlns="http://www.w3.org/2000/svg" xmlns:xlink="http://www.w3.org/1999/xlink" x="0px" y="0px" width="916px"
	 height="616px" viewBox="0 0 916 616" enable-background="new 0 0 916 616" xml:space="preserve">
<g id="Layer_1">
	<rect fill="#E5E3DA" width="916" height="616"/>
	<g>
		<defs>
			<rect id="SVGID_3_" x="-0.001" y="-0.001" width="916.001" height="616"/>
		</defs>
		<clipPath id="SVGID_2_">
			<use xlink:href="#SVGID_3_"  overflow="visible"/>
		</clipPath>
	</g>
	<g>
		<path fill="#808285" d="M152.669,326.723h-0.788c-1.147,0.043-2.461,0.066-3.94,0.066l-16.19-40.463
			c-0.239-0.479-0.646-0.719-1.219-0.719c-0.668,0-1.099,0.239-1.289,0.719l-16.836,40.463h-0.429c-1.434,0-2.627-0.023-3.582-0.066
			h-0.646c-0.717,0-1.075,0.393-1.075,1.178c0,0.742,0.358,1.113,1.075,1.113c0.097,0,0.287-0.021,0.573-0.064
			c0.525-0.09,1.158-0.154,1.898-0.197s1.945-0.066,3.617-0.066h0.359c1.671,0,2.865,0.023,3.582,0.066
			c0.716,0.043,1.337,0.107,1.863,0.197c0.285,0.043,0.476,0.064,0.572,0.064c0.717,0,1.074-0.371,1.074-1.113
			c0-0.785-0.357-1.178-1.074-1.178h-0.645c-1.004,0.043-2.27,0.066-3.797,0.066h-0.502l4.656-11.197h17.553l4.441,11.197
			c-1.433,0-2.746-0.023-3.941-0.066h-0.786c-0.718,0-1.075,0.393-1.075,1.178c0,0.742,0.357,1.113,1.075,1.113
			c0.142,0,0.358-0.021,0.644-0.064c0.62-0.045,1.408-0.1,2.364-0.164c0.955-0.066,2.388-0.1,4.298-0.1h0.86
			c1.909,0,3.343,0.033,4.299,0.1c0.955,0.064,1.741,0.119,2.364,0.164c0.287,0.043,0.5,0.064,0.645,0.064
			c0.717,0,1.074-0.371,1.074-1.113C153.743,327.115,153.386,326.723,152.669,326.723 M120.933,313.234l7.951-19.312l7.666,19.312
			H120.933z"/>
		<path fill="#808285" d="M209.743,286.589c-0.152,0-0.382,0.022-0.688,0.065c-0.663,0.043-1.402,0.088-2.217,0.131
			c-0.815,0.044-2.062,0.089-3.744,0.131c-1.528,0-2.713-0.032-3.555-0.098c-0.84-0.065-1.617-0.121-2.33-0.164
			c-0.356-0.043-0.611-0.065-0.765-0.065c-0.255,0-0.509,0.108-0.765,0.327c-0.254,0.219-0.381,0.48-0.381,0.786
			c0,0.786,0.381,1.178,1.146,1.178h0.843c1.271-0.042,2.75-0.065,4.432-0.065v29.789l-21.475-29.396l-0.229-0.263
			c-0.663-0.916-1.146-1.506-1.452-1.767c-0.307-0.263-0.714-0.394-1.223-0.394c-0.203,0-0.611,0.023-1.223,0.066
			c-0.917,0.043-1.529,0.064-1.835,0.064c-1.579,0-2.802-0.032-3.668-0.098s-1.604-0.121-2.216-0.164
			c-0.305-0.043-0.534-0.065-0.688-0.065c-0.765,0-1.146,0.371-1.146,1.113c0,0.786,0.382,1.178,1.146,1.178h0.84
			c1.273-0.042,2.726-0.065,4.356-0.065v37.975c-1.631,0-3.083-0.023-4.356-0.066h-0.84c-0.765,0-1.146,0.393-1.146,1.178
			c0,0.742,0.382,1.113,1.146,1.113c0.153,0,0.383-0.021,0.688-0.064c0.611-0.045,1.325-0.1,2.141-0.164
			c0.813-0.066,2.062-0.1,3.743-0.1c1.579,0,2.815,0.033,3.707,0.1c0.892,0.064,1.644,0.119,2.255,0.164
			c0.305,0.043,0.534,0.064,0.688,0.064c0.764,0,1.146-0.371,1.146-1.113c0-0.785-0.383-1.178-1.146-1.178h-0.84
			c-1.275,0.043-2.727,0.066-4.356,0.066v-34.045l25.906,35.615l0.077,0.064c0.56,0.83,1.119,1.244,1.681,1.244
			c0.713,0,1.069-0.611,1.069-1.832v-39.021c1.682,0,3.184,0.023,4.51,0.065h0.764c0.764,0,1.146-0.392,1.146-1.178
			c0-0.306-0.115-0.567-0.344-0.786C210.316,286.697,210.048,286.589,209.743,286.589"/>
		<path fill="#808285" d="M261.575,291.957c-0.048-0.828-0.07-1.592-0.07-2.291v-1.965c0-0.785-0.359-1.178-1.076-1.178
			c-0.144,0-0.646,0.043-1.506,0.131c-1.242,0.088-2.078,0.131-2.509,0.131l-11.183,0.131h-2.797l-11.184-0.131
			c-0.382,0-1.193-0.043-2.436-0.131c-0.766-0.088-1.268-0.131-1.506-0.131c-0.717,0-1.076,0.393-1.076,1.178v1.965
			c0,0.699-0.024,1.637-0.071,2.816c-0.048,1.178-0.12,2.312-0.215,3.403c-0.048,1.048-0.072,1.614-0.072,1.702
			c0,0.654,0.358,0.982,1.075,0.982c0.812,0,1.219-0.328,1.219-0.982c0-2.706,0.489-4.779,1.471-6.221
			c0.979-1.439,2.473-2.16,4.479-2.16h6.882v37.582c-1.529,0-2.892-0.023-4.086-0.066h-0.789c-0.717,0-1.074,0.393-1.074,1.178
			c0,0.742,0.357,1.113,1.074,1.113c0.145,0,0.359-0.021,0.646-0.066c0.619-0.043,1.408-0.098,2.365-0.162
			c0.955-0.066,2.389-0.1,4.301-0.1h0.861c1.91,0,3.344,0.033,4.301,0.1c0.955,0.064,1.744,0.119,2.365,0.162
			c0.286,0.045,0.502,0.066,0.646,0.066c0.717,0,1.075-0.371,1.075-1.113c0-0.785-0.358-1.178-1.075-1.178h-0.718
			c-1.242,0.043-2.652,0.066-4.229,0.066v-37.582h6.954c2.007,0,3.5,0.721,4.48,2.16c0.979,1.441,1.47,3.515,1.47,6.221
			c0,0.654,0.382,0.982,1.147,0.982c0.764,0,1.146-0.328,1.146-0.982c0-0.088-0.023-0.654-0.071-1.702
			C261.694,294.097,261.623,292.787,261.575,291.957"/>
		<path fill="#808285" d="M324.997,288.881h0.812c0.813,0,1.219-0.394,1.219-1.178c0-0.306-0.121-0.568-0.365-0.787
			c-0.243-0.218-0.528-0.326-0.854-0.326c-0.162,0-0.406,0.021-0.731,0.064c-0.705,0.044-1.599,0.098-2.683,0.163
			s-2.711,0.099-4.877,0.099h-0.976c-2.168,0-3.794-0.033-4.878-0.099s-1.979-0.119-2.682-0.163
			c-0.326-0.043-0.569-0.064-0.732-0.064c-0.812,0-1.219,0.371-1.219,1.113c0,0.784,0.406,1.178,1.219,1.178h0.895
			c1.354-0.043,2.898-0.065,4.633-0.065v16.892h-21.623v-16.892c1.734,0,3.279,0.022,4.634,0.065h0.894
			c0.813,0,1.221-0.394,1.221-1.178c0-0.306-0.123-0.568-0.366-0.787c-0.244-0.218-0.528-0.326-0.854-0.326
			c-0.162,0-0.406,0.021-0.73,0.064c-0.705,0.044-1.6,0.098-2.682,0.163c-1.086,0.065-2.711,0.099-4.879,0.099h-0.975
			c-2.168,0-3.794-0.033-4.878-0.099c-1.085-0.065-1.979-0.119-2.683-0.163c-0.324-0.043-0.568-0.064-0.731-0.064
			c-0.271,0-0.542,0.108-0.813,0.326c-0.271,0.219-0.406,0.481-0.406,0.787c0,0.784,0.406,1.178,1.22,1.178h0.894
			c1.354-0.043,2.899-0.065,4.635-0.065v37.972c-1.735,0-3.28-0.021-4.635-0.064h-0.894c-0.813,0-1.22,0.393-1.22,1.178
			c0,0.742,0.406,1.113,1.22,1.113c0.163,0,0.407-0.023,0.731-0.066c0.703-0.043,1.598-0.098,2.683-0.162
			c1.084-0.066,2.71-0.1,4.878-0.1h0.975c2.168,0,3.793,0.033,4.879,0.1c1.082,0.064,1.977,0.119,2.682,0.162
			c0.324,0.043,0.568,0.066,0.73,0.066c0.813,0,1.221-0.371,1.221-1.113c0-0.785-0.407-1.178-1.221-1.178h-0.894
			c-1.354,0.043-2.899,0.064-4.634,0.064v-18.725h21.623v18.725c-1.734,0-3.279-0.021-4.633-0.064h-0.895
			c-0.812,0-1.219,0.393-1.219,1.178c0,0.742,0.406,1.113,1.219,1.113c0.163,0,0.406-0.023,0.732-0.066
			c0.703-0.043,1.598-0.098,2.682-0.162c1.084-0.066,2.71-0.1,4.878-0.1h0.976c2.166,0,3.793,0.033,4.877,0.1
			c1.084,0.064,1.978,0.119,2.683,0.162c0.325,0.043,0.569,0.066,0.731,0.066c0.813,0,1.219-0.371,1.219-1.113
			c0-0.785-0.405-1.178-1.219-1.178h-0.812c-1.41,0.043-3.008,0.064-4.796,0.064v-37.972
			C321.989,288.815,323.587,288.838,324.997,288.881"/>
		<path fill="#808285" d="M385.114,324.627c-0.816,0-1.224,0.371-1.224,1.113c0,1.266-0.817,1.898-2.448,1.898
			c-1.274,0-1.912-0.85-1.912-2.553c0-0.48,0.051-1.287,0.154-2.422c0.152-2.096,0.229-3.82,0.229-5.174
			c0-2.357-0.956-4.682-2.869-6.973c-1.912-2.291-4.474-3.721-7.687-4.287c1.121-0.174,2.258-0.523,3.404-1.048
			s2.191-1.2,3.135-2.03c0.943-0.828,1.695-1.777,2.258-2.847c0.56-1.069,0.841-2.215,0.841-3.438c0-3.012-1.403-5.434-4.207-7.267
			s-6.884-2.75-12.237-2.75h-4.13c-2.091,0.044-3.417,0.065-3.978,0.065c-2.039,0-3.568-0.032-4.588-0.099
			c-1.021-0.065-1.863-0.118-2.523-0.163c-0.307-0.043-0.536-0.066-0.689-0.066c-0.256,0-0.51,0.111-0.765,0.328
			c-0.255,0.219-0.382,0.48-0.382,0.785c0,0.787,0.382,1.18,1.146,1.18h0.842c1.273-0.043,2.728-0.065,4.359-0.065v37.974
			c-1.632,0-3.086-0.023-4.359-0.066h-0.842c-0.765,0-1.146,0.393-1.146,1.178c0,0.742,0.382,1.113,1.146,1.113
			c0.153,0,0.383-0.023,0.689-0.066c0.66-0.043,1.502-0.098,2.523-0.162c1.02-0.066,2.549-0.1,4.588-0.1h0.918
			c2.039,0,3.568,0.033,4.59,0.1c1.019,0.064,1.861,0.119,2.523,0.162c0.305,0.043,0.535,0.066,0.688,0.066
			c0.764,0,1.147-0.371,1.147-1.113c0-0.785-0.384-1.178-1.147-1.178h-0.841c-1.275,0.043-2.729,0.066-4.36,0.066v-18.727h6.119
			c3.518,0,5.965,0.799,7.342,2.391c1.377,1.594,2.065,3.939,2.065,7.037c0,4.279,0.584,7.346,1.759,9.199
			c1.172,1.855,3.237,2.783,6.194,2.783c1.326,0,2.473-0.361,3.442-1.082c0.968-0.719,1.453-1.625,1.453-2.715
			c0-0.262-0.128-0.502-0.382-0.721C385.7,324.736,385.42,324.627,385.114,324.627 M362.552,305.707h-4.589v-16.5h4.589
			c3.723,0,6.258,0.568,7.61,1.703c1.351,1.135,2.026,3.121,2.026,5.957c0,2.795-0.791,4.967-2.371,6.516
			C368.237,304.933,365.813,305.707,362.552,305.707"/>
		<path fill="#808285" d="M435.341,291.826c-1.862-1.964-4.016-3.47-6.463-4.518c-2.449-1.047-5.021-1.57-7.713-1.57
			c-2.693,0-5.264,0.523-7.712,1.57c-2.448,1.048-4.603,2.554-6.464,4.518c-1.861,1.965-3.305,4.311-4.333,7.038
			c-1.028,2.729-1.542,5.707-1.542,8.937c0,3.23,0.514,6.211,1.542,8.938c1.028,2.729,2.472,5.074,4.333,7.037
			c1.861,1.965,4.016,3.482,6.464,4.551s5.019,1.605,7.712,1.605c2.742,0,5.325-0.537,7.75-1.605
			c2.422-1.068,4.563-2.586,6.426-4.551c1.859-1.963,3.306-4.309,4.334-7.037c1.027-2.727,1.541-5.707,1.541-8.938
			c0-3.229-0.514-6.207-1.541-8.937C438.646,296.137,437.2,293.791,435.341,291.826 M431.228,322.926
			c-2.155,2.924-5.51,4.387-10.062,4.387c-4.554,0-7.908-1.463-10.062-4.387c-2.156-2.926-3.231-7.967-3.231-15.125
			c0-7.157,1.075-12.198,3.231-15.123c2.153-2.924,5.508-4.387,10.062-4.387c4.553,0,7.907,1.463,10.062,4.387
			c2.154,2.925,3.232,7.966,3.232,15.123C434.46,314.959,433.382,320,431.228,322.926"/>
		<path fill="#808285" d="M489.849,290.092c-3.001-2.203-7.271-3.307-12.808-3.307c-1.604,0-3.52,0.022-5.743,0.066
			c-0.984,0.043-2.02,0.064-3.105,0.064c-2.07,0-3.623-0.033-4.658-0.099s-1.89-0.118-2.561-0.163
			c-0.312-0.043-0.544-0.066-0.699-0.066c-0.259,0-0.518,0.111-0.777,0.328c-0.258,0.219-0.388,0.481-0.388,0.787
			c0,0.784,0.388,1.178,1.165,1.178h0.854c1.294-0.043,2.769-0.065,4.425-0.065v37.972c-1.656,0-3.131-0.021-4.425-0.064h-0.854
			c-0.777,0-1.165,0.393-1.165,1.178c0,0.742,0.388,1.113,1.165,1.113c0.155,0,0.388-0.023,0.699-0.066
			c0.671-0.043,1.525-0.098,2.561-0.162c1.035-0.066,2.588-0.1,4.658-0.1h0.932c2.068,0,3.62,0.033,4.657,0.1
			c1.034,0.064,1.889,0.119,2.562,0.162c0.31,0.043,0.544,0.066,0.698,0.066c0.776,0,1.165-0.371,1.165-1.113
			c0-0.785-0.389-1.178-1.165-1.178h-0.854c-1.294,0.043-2.769,0.064-4.425,0.064v-15.451h5.278c5.536,0,9.807-1.113,12.808-3.338
			c3.002-2.227,4.503-5.215,4.503-8.97C494.352,295.275,492.851,292.295,489.849,290.092 M485.191,306.787
			c-1.553,1.463-4.269,2.193-8.15,2.193h-5.278v-19.773h5.278c3.882,0,6.598,0.721,8.15,2.162c1.552,1.439,2.329,3.993,2.329,7.659
			C487.521,302.738,486.743,305.324,485.191,306.787"/>
		<path fill="#808285" d="M543.485,291.826c-1.803-1.964-3.889-3.47-6.259-4.518c-2.371-1.047-4.861-1.57-7.468-1.57
			c-2.609,0-5.098,0.523-7.469,1.57c-2.371,1.048-4.457,2.554-6.259,4.518c-1.803,1.965-3.2,4.311-4.196,7.038
			c-0.996,2.729-1.494,5.707-1.494,8.937c0,3.23,0.498,6.211,1.494,8.938c0.996,2.729,2.394,5.074,4.196,7.037
			c1.802,1.965,3.888,3.482,6.259,4.551s4.859,1.605,7.469,1.605c2.655,0,5.156-0.537,7.504-1.605
			c2.347-1.068,4.42-2.586,6.223-4.551c1.803-1.963,3.201-4.309,4.197-7.037c0.996-2.727,1.494-5.707,1.494-8.938
			c0-3.229-0.498-6.207-1.494-8.937C546.687,296.137,545.288,293.791,543.485,291.826 M539.503,322.926
			c-2.087,2.924-5.334,4.387-9.744,4.387s-7.658-1.463-9.744-4.387c-2.087-2.926-3.13-7.967-3.13-15.125
			c0-7.157,1.043-12.198,3.13-15.123c2.086-2.924,5.334-4.387,9.744-4.387s7.657,1.463,9.744,4.387
			c2.086,2.925,3.13,7.966,3.13,15.123C542.633,314.959,541.589,320,539.503,322.926"/>
		<path fill="#808285" d="M602.155,317.494c-0.86,0-1.289,0.328-1.289,0.982c0,2.707-0.506,4.779-1.517,6.221
			c-1.011,1.439-2.578,2.16-4.7,2.16h-13.646v-37.58c1.617,0,3.058,0.023,4.321,0.064h0.834c0.758,0,1.137-0.392,1.137-1.178
			c0-0.305-0.113-0.566-0.341-0.786c-0.229-0.218-0.493-0.327-0.796-0.327c-0.151,0-0.379,0.022-0.683,0.065
			c-0.656,0.044-1.491,0.099-2.502,0.164c-1.012,0.065-2.527,0.098-4.548,0.098h-0.91c-2.021,0-3.538-0.032-4.548-0.098
			c-1.013-0.065-1.846-0.12-2.502-0.164c-0.304-0.043-0.531-0.065-0.683-0.065c-0.253,0-0.505,0.109-0.758,0.327
			c-0.254,0.22-0.38,0.481-0.38,0.786c0,0.786,0.38,1.178,1.138,1.178h0.834c1.263-0.041,2.704-0.064,4.32-0.064v37.973
			c-1.616,0-3.058-0.021-4.32-0.064h-0.834c-0.758,0-1.138,0.393-1.138,1.178c0,0.742,0.38,1.113,1.138,1.113
			c0.151,0,0.379-0.023,0.683-0.066c0.656-0.043,1.489-0.098,2.502-0.164c1.01-0.066,2.526-0.098,4.548-0.098
			c0.859,0,2.906,0.021,6.141,0.066c6.266,0.043,10.917,0.064,13.948,0.064c0.607,0,1.566,0.064,2.882,0.197
			c0.707,0.043,1.161,0.064,1.364,0.064c0.304,0,0.568-0.109,0.795-0.326c0.229-0.219,0.343-0.48,0.343-0.787v-2.029
			c0-0.697,0.024-1.637,0.075-2.814c0.05-1.18,0.125-2.312,0.228-3.406c0.05-1.047,0.076-1.613,0.076-1.701
			C603.368,317.822,602.963,317.494,602.155,317.494"/>
		<path fill="#808285" d="M650.946,292.289c-1.762-1.965-3.8-3.471-6.116-4.519c-2.317-1.047-4.749-1.569-7.296-1.569
			c-2.548,0-4.98,0.522-7.296,1.569c-2.317,1.048-4.355,2.554-6.115,4.519c-1.761,1.963-3.127,4.311-4.1,7.037
			c-0.974,2.729-1.459,5.707-1.459,8.938c0,3.229,0.485,6.209,1.459,8.936c0.973,2.729,2.339,5.074,4.1,7.039
			c1.76,1.963,3.798,3.48,6.115,4.551c2.315,1.068,4.748,1.604,7.296,1.604c2.594,0,5.038-0.535,7.332-1.604
			c2.292-1.07,4.318-2.588,6.08-4.551c1.759-1.965,3.127-4.311,4.099-7.039c0.974-2.727,1.46-5.707,1.46-8.936
			c0-3.23-0.486-6.208-1.46-8.938C654.073,296.6,652.705,294.252,650.946,292.289 M647.054,323.387
			c-2.038,2.924-5.212,4.387-9.52,4.387s-7.482-1.463-9.52-4.387c-2.039-2.924-3.058-7.965-3.058-15.123s1.019-12.199,3.058-15.124
			c2.037-2.924,5.212-4.386,9.52-4.386s7.481,1.462,9.52,4.386c2.038,2.925,3.059,7.966,3.059,15.124
			S649.092,320.463,647.054,323.387"/>
		<path fill="#808285" d="M717.641,312.781c-0.146,0-0.367,0.021-0.661,0.064c-0.638,0.043-1.446,0.1-2.427,0.164
			c-0.979,0.066-2.425,0.098-4.336,0.098h-0.956c-1.912,0-3.357-0.031-4.338-0.098c-0.98-0.064-1.789-0.121-2.425-0.164
			c-0.295-0.043-0.516-0.064-0.662-0.064c-0.735,0-1.104,0.393-1.104,1.178c0,0.742,0.368,1.113,1.104,1.113h0.809
			c1.225-0.043,2.621-0.066,4.19-0.066v0.918c0,1.484-0.185,2.912-0.552,4.287s-0.98,2.631-1.839,3.766
			c-0.857,1.135-1.996,2.053-3.418,2.75s-3.159,1.047-5.219,1.047c-2.157,0-4.056-0.336-5.697-1.014
			c-1.643-0.678-3.003-1.736-4.079-3.176c-2.354-3.1-3.529-8.205-3.529-15.32c0-7.113,1.176-12.221,3.529-15.32
			c1.076-1.44,2.437-2.498,4.079-3.176c1.642-0.676,3.54-1.015,5.697-1.015c1.765,0,3.455,0.306,5.072,0.917
			c1.618,0.612,3.062,1.473,4.338,2.586c1.273,1.113,2.278,2.434,3.014,3.961c0.735,1.528,1.103,3.166,1.103,4.91
			c0,0.307,0.073,0.557,0.221,0.753c0.147,0.197,0.441,0.296,0.882,0.296c0.393,0,0.674-0.099,0.847-0.296
			c0.171-0.196,0.257-0.446,0.257-0.753V287.51c0-0.306-0.074-0.557-0.221-0.754c-0.147-0.195-0.467-0.294-0.955-0.294
			c-0.395,0-0.662,0.109-0.81,0.327c-0.147,0.219-0.221,0.48-0.221,0.786c0,0.653-0.159,1.321-0.479,1.996
			c-0.318,0.678-0.674,1.19-1.064,1.539c-1.717-1.483-3.566-2.673-5.551-3.568c-1.984-0.894-4.325-1.342-7.021-1.342
			c-2.646,0-5.146,0.524-7.499,1.571c-2.352,1.048-4.436,2.554-6.248,4.518c-1.813,1.964-3.223,4.311-4.227,7.038
			c-1.005,2.728-1.507,5.707-1.507,8.937c0,3.23,0.502,6.209,1.507,8.936c1.004,2.729,2.399,5.074,4.189,7.039
			c1.788,1.965,3.871,3.48,6.249,4.551c2.377,1.068,4.889,1.604,7.535,1.604c5.047,0,9.213-1.309,12.497-3.928
			c3.283-2.619,4.925-6.221,4.925-10.803v-0.656c1.568,0,2.965,0.023,4.191,0.066h0.808c0.735,0,1.104-0.371,1.104-1.113
			C718.744,313.174,718.376,312.781,717.641,312.781"/>
		<path fill="#808285" d="M751.721,288.913h0.841c0.765,0,1.147-0.393,1.147-1.178c0-0.306-0.114-0.567-0.345-0.786
			c-0.229-0.218-0.497-0.327-0.803-0.327c-0.152,0-0.382,0.022-0.688,0.065c-0.663,0.044-1.506,0.098-2.523,0.162
			c-1.021,0.066-2.55,0.1-4.588,0.1h-0.918c-2.04,0-3.569-0.033-4.588-0.1c-1.021-0.064-1.862-0.118-2.524-0.162
			c-0.306-0.043-0.535-0.065-0.688-0.065c-0.257,0-0.511,0.109-0.766,0.327c-0.256,0.219-0.382,0.48-0.382,0.786
			c0,0.785,0.382,1.178,1.147,1.178h0.84c1.273-0.043,2.728-0.065,4.358-0.065v37.973c-1.631,0-3.085-0.021-4.358-0.066h-0.84
			c-0.766,0-1.147,0.395-1.147,1.18c0,0.742,0.382,1.113,1.147,1.113c0.152,0,0.382-0.023,0.688-0.066
			c0.662-0.043,1.503-0.098,2.524-0.162c1.019-0.066,2.548-0.1,4.588-0.1h0.918c2.038,0,3.566,0.033,4.588,0.1
			c1.018,0.064,1.86,0.119,2.523,0.162c0.306,0.043,0.535,0.066,0.688,0.066c0.765,0,1.147-0.371,1.147-1.113
			c0-0.785-0.383-1.18-1.147-1.18h-0.841c-1.275,0.045-2.729,0.066-4.359,0.066v-37.973
			C748.992,288.848,750.445,288.87,751.721,288.913"/>
		<path fill="#808285" d="M808.083,317.527c-0.882,0-1.321,0.326-1.321,0.982c0,2.707-0.518,4.779-1.554,6.219
			c-1.036,1.441-2.64,2.16-4.814,2.16h-14.605v-18.332h7.613c2.745,0,4.118,1.682,4.118,5.043c0,0.654,0.36,0.982,1.086,0.982
			c0.674,0,1.011-0.328,1.011-0.982v-0.656c-0.104-1.439-0.155-3.293-0.155-5.563c0-2.269,0.051-4.125,0.155-5.565v-0.654
			c0-0.654-0.337-0.982-1.011-0.982c-0.726,0-1.086,0.328-1.086,0.982c0,3.361-1.373,5.041-4.118,5.041h-7.613v-16.498h12.663
			c2.175,0,3.779,0.72,4.815,2.16s1.554,3.514,1.554,6.22c0,0.655,0.44,0.981,1.321,0.981c0.826,0,1.242-0.326,1.242-0.981
			c0-0.087-0.027-0.655-0.077-1.702c-0.105-1.79-0.183-3.1-0.233-3.928c-0.052-0.829-0.078-1.594-0.078-2.293v-1.963
			c0-0.787-0.388-1.178-1.165-1.178c-0.155,0-0.699,0.043-1.631,0.129c-1.347,0.088-2.253,0.131-2.719,0.131l-8.079,0.066
			c-6.473,0.043-10.202,0.064-11.187,0.064c-2.069,0-3.624-0.031-4.659-0.098c-1.036-0.064-1.892-0.119-2.563-0.164
			c-0.311-0.043-0.544-0.064-0.699-0.064c-0.26,0-0.519,0.109-0.776,0.326c-0.26,0.22-0.389,0.481-0.389,0.787
			c0,0.785,0.389,1.178,1.165,1.178h0.854c1.294-0.042,2.77-0.065,4.427-0.065v37.974c-1.657,0-3.133-0.021-4.427-0.066h-0.854
			c-0.776,0-1.165,0.393-1.165,1.178c0,0.744,0.389,1.113,1.165,1.113c0.155,0,0.389-0.021,0.699-0.064
			c0.672-0.045,1.527-0.1,2.563-0.164c1.035-0.066,2.59-0.098,4.659-0.098c0.984,0,4.532,0.021,10.644,0.066
			c6.058,0.043,9.58,0.064,10.563,0.064c0.467,0,1.372,0.043,2.72,0.131c0.932,0.088,1.476,0.131,1.631,0.131
			c0.311,0,0.583-0.109,0.815-0.326c0.232-0.219,0.35-0.482,0.35-0.787v-2.029c0-0.699,0.025-1.637,0.078-2.814
			c0.051-1.18,0.128-2.314,0.232-3.406c0.05-1.047,0.077-1.613,0.077-1.701C809.325,317.854,808.91,317.527,808.083,317.527"/>
	</g>
</g>
<g id="Layer_2">
</g>
</svg>
